<svg width="3068" height="660" viewBox="0 0 3068 660" fill="none" xmlns="http://www.w3.org/2000/svg">
<path d="M0.836182 330.183L39.4396 387.414H228.67L270.125 345.959L243.843 292.072L205.189 330.726H84.4683L72.3818 312.807L187.532 76.7144H203.924L355.463 387.414H593.886V335.923H507.436V180.503L465.393 118.146H417.769L374.067 161.848L400.349 215.735L441.702 174.383L452.638 190.423V335.923H393.419L229.602 0.0458374H161.854L0.836182 330.183Z" fill="#242424"/>
<path d="M2894.05 34.0585H2951.21V126.649H3027.74V180.03H2951.21V313.72L2964.44 334.033H3004.12L3037.66 300.492L3067.89 344.426L3027.74 387.414H2936.56L2894.05 325.057V180.03H2856.26V126.649H2894.05V34.0585Z" fill="#242424"/>
<path fill-rule="evenodd" clip-rule="evenodd" d="M2229.01 630.442H2276.42C2299.8 630.442 2313.56 620.049 2313.56 600.772C2313.56 589.877 2308.59 581.663 2300.3 576.802V576.466C2306.1 571.941 2309.41 565.571 2309.41 556.854C2309.41 541.265 2297.81 529.866 2275.59 529.866H2229.01C2228.01 529.866 2227.02 530.872 2227.02 531.878V628.431C2227.02 629.436 2228.01 630.442 2229.01 630.442ZM2276.09 617.702H2241.61V584.01H2276.09C2291.84 584.01 2298.97 589.709 2298.97 600.772C2298.97 612.003 2292.01 617.702 2276.09 617.702ZM2241.61 542.606H2275.26C2290.02 542.606 2294.83 548.808 2294.83 556.854C2294.83 565.068 2292.01 571.27 2278.58 571.27H2241.61V542.606Z" fill="#242424"/>
<path fill-rule="evenodd" clip-rule="evenodd" d="M2450.83 580.154C2450.83 547.635 2426.96 528.19 2397.12 528.19C2367.61 528.19 2343.4 547.635 2343.4 580.154C2343.4 612.674 2367.61 632.118 2397.12 632.118C2426.79 632.118 2450.83 612.674 2450.83 580.154ZM2357.99 580.154C2357.99 555.346 2375.73 540.93 2397.12 540.93C2419 540.93 2436.24 555.346 2436.24 580.154C2436.24 604.628 2418.83 619.379 2397.12 619.379C2375.73 619.379 2357.99 604.628 2357.99 580.154Z" fill="#242424"/>
<path d="M2504.55 617.702V531.878C2504.55 530.872 2503.55 529.866 2502.56 529.866H2491.95C2490.95 529.866 2489.96 530.872 2489.96 531.878V628.431C2489.96 629.436 2490.95 630.442 2491.95 630.442H2559.26C2560.25 630.442 2561.58 629.101 2561.58 628.095V620.049C2561.58 619.044 2560.25 617.702 2559.26 617.702H2504.55Z" fill="#242424"/>
<path fill-rule="evenodd" clip-rule="evenodd" d="M2592.91 630.442H2636.35C2672.32 630.442 2691.89 610.327 2691.89 580.154C2691.89 549.479 2668.68 529.866 2636.02 529.866H2592.91C2591.92 529.866 2590.92 530.872 2590.92 531.878V628.431C2590.92 629.436 2591.92 630.442 2592.91 630.442ZM2620.76 555.346H2636.02C2651.43 555.346 2662.04 564.397 2662.04 580.154C2662.04 595.408 2653.59 604.963 2636.18 604.963H2620.76V555.346Z" fill="#242424"/>
<path fill-rule="evenodd" clip-rule="evenodd" d="M2791.03 617.032L2795.83 628.263C2796.66 630.107 2797.33 630.442 2799.32 630.442H2827.17C2828.16 630.442 2828.49 629.772 2828.49 629.269C2828.49 628.766 2828.16 627.928 2827.83 627.257L2783.23 529.866H2755.38L2710.79 627.257C2710.72 627.432 2710.65 627.6 2710.58 627.76C2710.33 628.368 2710.12 628.871 2710.12 629.269C2710.12 629.772 2710.45 630.442 2711.45 630.442H2739.3C2741.29 630.442 2741.95 630.107 2742.78 628.263L2747.59 617.032H2791.03ZM2757.87 593.229L2762.35 583.004C2765 576.802 2768.81 563.894 2768.81 563.894H2769.81C2769.81 563.894 2773.62 576.802 2776.27 583.004L2780.75 593.229H2757.87Z" fill="#242424"/>
<path fill-rule="evenodd" clip-rule="evenodd" d="M2858.17 529.866C2857.18 529.866 2856.18 530.872 2856.18 531.878V628.431C2856.18 629.436 2857.18 630.442 2858.17 630.442H2884.03C2885.03 630.442 2886.02 629.436 2886.02 628.431V602.784H2899.45L2916.2 629.269C2916.69 630.107 2917.69 630.442 2918.52 630.442H2949.02C2950.18 630.442 2950.68 629.939 2950.68 629.269C2950.68 628.629 2950.38 628.142 2949.63 626.936L2949.52 626.754L2934.6 603.454C2932.78 600.605 2930.62 597.587 2930.62 597.587V597.252C2942.22 591.553 2949.85 581.328 2949.85 567.079C2949.85 544.617 2932.44 529.866 2907.91 529.866H2858.17ZM2886.02 555.346H2905.25C2914.7 555.346 2920.01 560.207 2920.01 567.079C2920.01 573.784 2914.7 578.981 2905.25 578.981H2886.02V555.346Z" fill="#242424"/>
<path d="M3011.19 591.553H3059.93C3060.93 591.553 3062.25 590.212 3062.25 589.206V570.097C3062.25 569.091 3060.93 567.75 3059.93 567.75H3011.19V555.346H3064.91C3065.9 555.346 3067.23 554.004 3067.23 552.999V532.213C3067.23 531.207 3065.9 529.866 3064.91 529.866H2983.34C2982.35 529.866 2981.35 530.872 2981.35 531.878V628.431C2981.35 629.436 2982.35 630.442 2983.34 630.442H3065.57C3066.57 630.442 3067.89 629.101 3067.89 628.095V607.31C3067.89 606.304 3066.57 604.963 3065.57 604.963H3011.19V591.553Z" fill="#242424"/>
<path fill-rule="evenodd" clip-rule="evenodd" d="M2025.02 529.891H2040.94V562.653L2047.91 558.311H2076.73L2088.7 576.205V618.177L2076.47 630.939H2048.31L2040.94 626.597V630.939H2025.02V529.891ZM2040.94 575.942V616.072H2070.28L2072.78 613.44V578.968L2068.83 573.179H2043.57L2040.94 575.942Z" fill="#242424"/>
<path d="M2147.6 558.442H2163.52V635.676L2140.62 659.49H2100.1V644.623H2134.04L2147.6 630.939H2114.44L2100.1 609.756V558.442H2116.02V606.861L2122.47 616.203H2147.6V558.442Z" fill="#242424"/>
<path d="M2636.3 127.121H2579.14V387.414H2636.3V189.95L2644.81 180.03H2736.45L2750.15 200.343V387.414H2807.31V189.95L2764.8 127.121H2662.28L2636.3 142.71V127.121Z" fill="#242424"/>
<path fill-rule="evenodd" clip-rule="evenodd" d="M2347.38 126.177H2505.16L2538.23 174.834V387.414H2481.07V371.825L2455.08 387.414H2352.1L2309.58 324.112V299.075L2385.64 219.712H2481.07V178.613H2347.38V126.177ZM2368.63 313.72L2377.61 334.033H2479.18V273.566H2406.9L2368.63 312.775V313.72Z" fill="#242424"/>
<path d="M2143.96 34.0585H2086.8V126.649H2049V180.03H2086.8V325.057L2129.31 387.414H2220.49L2260.64 344.426L2230.41 300.492L2196.87 334.033H2157.18L2143.96 313.72V180.03H2220.49V126.649H2143.96V34.0585Z" fill="#242424"/>
<path d="M1820.07 123.815H1958.01L1990.14 170.582L1953.29 208.847L1930.62 175.779H1843.69L1835.19 183.337V205.068L1848.42 224.436H1958.96L1995.81 279.234V345.843L1958.49 387.414H1801.18L1775.67 347.733L1812.52 309.94L1829.05 334.033H1933.92L1938.65 328.837V290.572L1929.67 277.345H1819.13L1778.5 216.405V164.441L1820.07 123.815Z" fill="#242424"/>
<path d="M1688.93 123.815H1550.99L1509.42 164.441V216.405L1550.05 277.345H1660.59L1669.56 290.572V328.837L1664.84 334.033H1559.97L1543.43 309.94L1506.58 347.733L1532.09 387.414H1689.4L1726.72 345.843V279.234L1689.88 224.436H1579.33L1566.11 205.068V183.337L1574.61 175.779H1661.53L1684.21 208.847L1721.05 170.582L1688.93 123.815Z" fill="#242424"/>
<path d="M1012.82 123.815H1150.76L1182.89 170.582L1146.04 208.847L1123.36 175.779H1036.44L1027.94 183.337V205.068L1041.17 224.436H1151.71L1188.56 279.234V345.843L1151.24 387.414H993.927L968.417 347.733L1005.26 309.94L1021.8 334.033H1126.67L1131.4 328.837V290.572L1122.42 277.345H1011.88L971.251 216.405V164.441L1012.82 123.815Z" fill="#242424"/>
<path fill-rule="evenodd" clip-rule="evenodd" d="M890.656 126.177H732.874V178.613H866.563V219.712H771.138L695.082 299.075V324.112L737.598 387.414H840.581L866.563 371.825V387.414H923.724V174.834L890.656 126.177ZM763.108 334.033L754.132 313.72V312.775L792.396 273.566H864.674V334.033H763.108Z" fill="#242424"/>
<path d="M1272.13 215.735L1245.85 161.848L1289.55 118.146H1337.17L1379.22 180.503V335.923H1465.67V387.414H1237.97V335.923H1324.42V190.423L1313.48 174.383L1272.13 215.735Z" fill="#242424"/>
<path d="M1318.75 66.1819H1384.89V0.0458374H1318.75V66.1819Z" fill="#242424"/>
<path d="M446.969 66.1819H513.105V0.0458374H446.969V66.1819Z" fill="#242424"/>
</svg>
