<svg xmlns="http://www.w3.org/2000/svg" fill="none" viewBox="0.84 0.05 3067.05 387.37"><path d="M0.836182 330.183L39.4396 387.414H228.67L270.125 345.959L243.843 292.072L205.189 330.726H84.4683L72.3818 312.807L187.532 76.7144H203.924L355.463 387.414H593.886V335.923H507.436V180.503L465.393 118.146H417.769L374.067 161.848L400.349 215.735L441.702 174.383L452.638 190.423V335.923H393.419L229.602 0.0458374H161.854L0.836182 330.183Z" fill="#242424"></path><path d="M2894.05 34.0585H2951.21V126.649H3027.74V180.03H2951.21V313.72L2964.44 334.033H3004.12L3037.66 300.492L3067.89 344.426L3027.74 387.414H2936.56L2894.05 325.057V180.03H2856.26V126.649H2894.05V34.0585Z" fill="#242424"></path><path d="M2636.3 127.121H2579.14V387.414H2636.3V189.95L2644.81 180.03H2736.45L2750.15 200.343V387.414H2807.31V189.95L2764.8 127.121H2662.28L2636.3 142.71V127.121Z" fill="#242424"></path><path fill-rule="evenodd" clip-rule="evenodd" d="M2347.38 126.177H2505.16L2538.23 174.834V387.414H2481.07V371.825L2455.08 387.414H2352.1L2309.58 324.112V299.075L2385.64 219.712H2481.07V178.613H2347.38V126.177ZM2368.63 313.72L2377.61 334.033H2479.18V273.566H2406.9L2368.63 312.775V313.72Z" fill="#242424"></path><path d="M2143.96 34.0585H2086.8V126.649H2049V180.03H2086.8V325.057L2129.31 387.414H2220.49L2260.64 344.426L2230.41 300.492L2196.87 334.033H2157.18L2143.96 313.72V180.03H2220.49V126.649H2143.96V34.0585Z" fill="#242424"></path><path d="M1820.07 123.815H1958.01L1990.14 170.582L1953.29 208.847L1930.62 175.779H1843.69L1835.19 183.337V205.068L1848.42 224.436H1958.96L1995.81 279.234V345.843L1958.49 387.414H1801.18L1775.67 347.733L1812.52 309.94L1829.05 334.033H1933.92L1938.65 328.837V290.572L1929.67 277.345H1819.13L1778.5 216.405V164.441L1820.07 123.815Z" fill="#242424"></path><path d="M1688.93 123.815H1550.99L1509.42 164.441V216.405L1550.05 277.345H1660.59L1669.56 290.572V328.837L1664.84 334.033H1559.97L1543.43 309.94L1506.58 347.733L1532.09 387.414H1689.4L1726.72 345.843V279.234L1689.88 224.436H1579.33L1566.11 205.068V183.337L1574.61 175.779H1661.53L1684.21 208.847L1721.05 170.582L1688.93 123.815Z" fill="#242424"></path><path d="M1012.82 123.815H1150.76L1182.89 170.582L1146.04 208.847L1123.36 175.779H1036.44L1027.94 183.337V205.068L1041.17 224.436H1151.71L1188.56 279.234V345.843L1151.24 387.414H993.927L968.417 347.733L1005.26 309.94L1021.8 334.033H1126.67L1131.4 328.837V290.572L1122.42 277.345H1011.88L971.251 216.405V164.441L1012.82 123.815Z" fill="#242424"></path><path fill-rule="evenodd" clip-rule="evenodd" d="M890.656 126.177H732.874V178.613H866.563V219.712H771.138L695.082 299.075V324.112L737.598 387.414H840.581L866.563 371.825V387.414H923.724V174.834L890.656 126.177ZM763.108 334.033L754.132 313.72V312.775L792.396 273.566H864.674V334.033H763.108Z" fill="#242424"></path><path d="M1272.13 215.735L1245.85 161.848L1289.55 118.146H1337.17L1379.22 180.503V335.923H1465.67V387.414H1237.97V335.923H1324.42V190.423L1313.48 174.383L1272.13 215.735Z" fill="#242424"></path><path d="M1318.75 66.1819H1384.89V0.0458374H1318.75V66.1819Z" fill="#242424"></path><path d="M446.969 66.1819H513.105V0.0458374H446.969V66.1819Z" fill="#242424"></path></svg>
