<svg width="103" height="14" xmlns="http://www.w3.org/2000/svg"><path d="M6.68 13H.96c-.12 0-.24-.12-.24-.24V1.24c0-.12.12-.24.24-.24h5.62c2.68 0 4.08 1.36 4.08 3.22 0 1.04-.4 1.8-1.1 2.34v.04c1 .58 1.6 1.56 1.6 2.86 0 2.3-1.66 3.54-4.48 3.54zm-4.2-1.52h4.16c1.92 0 2.76-.68 2.76-2.02 0-1.32-.86-2-2.76-2H2.48v4.02zm4.06-8.96H2.48v3.42h4.46c1.62 0 1.96-.74 1.96-1.72 0-.96-.58-1.7-2.36-1.7zM21.24.8c3.6 0 6.48 2.32 6.48 6.2 0 3.88-2.9 6.2-6.48 6.2-3.56 0-6.48-2.32-6.48-6.2 0-3.88 2.92-6.2 6.48-6.2zm0 1.52c-2.58 0-4.72 1.72-4.72 4.68 0 2.92 2.14 4.68 4.72 4.68 2.62 0 4.72-1.76 4.72-4.68 0-2.96-2.08-4.68-4.72-4.68zM34.2 1.24v10.24h6.6c.12 0 .28.16.28.28v.96c0 .12-.16.28-.28.28h-8.12c-.12 0-.24-.12-.24-.24V1.24c0-.12.12-.24.24-.24h1.28c.12 0 .24.12.24.24zM50.1 13h-5.24c-.12 0-.24-.12-.24-.24V1.24c0-.12.12-.24.24-.24h5.2C54 1 56.8 3.34 56.8 7c0 3.6-2.36 6-6.7 6zm-.04-8.96h-1.84v5.92h1.86c2.1 0 3.12-1.14 3.12-2.96 0-1.88-1.28-2.96-3.14-2.96zm19.28 8.7l-.58-1.34h-5.24l-.58 1.34c-.1.22-.18.26-.42.26h-3.36c-.12 0-.16-.08-.16-.14 0-.06.04-.14.08-.24L64.46 1h3.36l5.38 11.62c.04.08.08.18.08.24s-.04.14-.16.14h-3.36c-.24 0-.32-.04-.42-.26zm-4.04-5.4l-.54 1.22h2.76l-.54-1.22c-.32-.74-.78-2.28-.78-2.28h-.12s-.46 1.54-.78 2.28zm11.32 5.42V1.24c0-.12.12-.24.24-.24h6c2.96 0 5.06 1.76 5.06 4.44 0 1.7-.92 2.92-2.32 3.6v.04s.26.36.48.7l1.8 2.78c.1.16.14.22.14.3 0 .08-.06.14-.2.14h-3.68c-.1 0-.22-.04-.28-.14L81.84 9.7h-1.62v3.06c0 .12-.12.24-.24.24h-3.12c-.12 0-.24-.12-.24-.24zm5.92-8.72h-2.32v2.82h2.32c1.14 0 1.78-.62 1.78-1.42 0-.82-.64-1.4-1.78-1.4zm18.66 4.32h-5.88v1.6h6.56c.12 0 .28.16.28.28v2.48c0 .12-.16.28-.28.28h-9.92c-.12 0-.24-.12-.24-.24V1.24c0-.12.12-.24.24-.24h9.84c.12 0 .28.16.28.28v2.48c0 .12-.16.28-.28.28h-6.48v1.48h5.88c.12 0 .28.16.28.28v2.28c0 .12-.16.28-.28.28z" fill="#242424" fill-rule="evenodd"/></svg>